# Blender v2.93.0 OBJ File: 'Rock.blend'
# www.blender.org
mtllib Rock.mtl
o Rocks.008_rock.009
v 0.053514 0.053142 0.668017
v 0.044634 0.085262 0.777257
v 0.043128 0.032866 0.726314
v 0.023487 0.027938 0.762371
v -0.024635 0.135739 0.647847
v -0.057338 0.034044 0.652047
v 0.016013 0.063596 0.793927
v 0.047376 0.055596 0.776405
v 0.006265 0.151651 0.708378
v 0.017672 0.057821 0.600419
v -0.012769 0.122795 0.780776
v -0.063608 0.105597 0.767513
v -0.089871 0.087043 0.685655
v 0.058195 0.061959 0.716682
v 0.050749 0.090477 0.754571
v 0.033936 0.115632 0.752176
v 0.044365 0.034764 0.755707
v 0.004752 0.026295 0.768338
v -0.002526 0.029707 0.776704
v -0.061958 0.052181 0.759149
v -0.084348 0.062085 0.726961
v -0.089158 0.068642 0.717408
v 0.049334 0.042526 0.647519
v 0.039112 0.028489 0.647304
v 0.003930 0.018529 0.640968
v -0.020846 0.037136 0.614247
v 0.056241 0.064623 0.641361
v 0.021004 0.102843 0.606607
v -0.012778 0.149114 0.743390
v -0.035346 0.153230 0.726822
v 0.002504 0.115057 0.614482
v -0.038314 0.150526 0.682815
v -0.082923 0.051182 0.703293
v -0.077491 0.046028 0.671603
v -0.063410 0.039664 0.652987
v -0.044808 0.048238 0.618868
v 0.023258 0.093285 0.792172
v 0.019096 0.084881 0.797251
v -0.002724 0.053507 0.793746
v -0.012214 0.043669 0.787570
v -0.082934 0.111909 0.728379
v -0.060858 0.138081 0.717285
v -0.030252 0.050858 0.604539
v -0.023382 0.067623 0.596272
v -0.018369 0.092656 0.593639
v 0.002813 0.102364 0.598512
v 0.051549 0.053946 0.761170
v 0.039012 0.080747 0.785208
v 0.027763 0.048679 0.782549
v 0.050413 0.065915 0.771992
v 0.043559 0.062883 0.782248
v 0.041475 0.037425 0.765908
v -0.025519 0.022311 0.735823
v 0.005548 0.021923 0.743874
v -0.037032 0.019306 0.703707
v -0.017927 0.014881 0.663589
v -0.047353 0.019596 0.672480
v -0.052401 0.021825 0.692867
v 0.031596 0.022146 0.675155
v -0.032834 0.027270 0.754380
v -0.059695 0.042584 0.751112
v -0.048925 0.033946 0.754200
v -0.075114 0.049226 0.729950
v -0.072924 0.039645 0.711352
v -0.066847 0.030377 0.673527
v 0.006757 0.015215 0.653092
v 0.052821 0.104102 0.660451
v 0.017451 0.117405 0.627084
v 0.024148 0.137555 0.683183
v 0.010763 0.145827 0.687783
v -0.005758 0.155923 0.704100
v 0.057059 0.080745 0.650346
v 0.055461 0.096044 0.681703
v 0.054197 0.088051 0.633992
v 0.043537 0.113255 0.655922
v -0.008051 0.142307 0.662813
v -0.024843 0.155134 0.691284
v -0.015220 0.159371 0.717043
v -0.004501 0.152672 0.733542
v 0.014740 0.138835 0.732608
v 0.023692 0.115949 0.768041
v 0.052870 0.098358 0.732988
v 0.018929 0.051670 0.603989
v 0.025140 0.074545 0.602639
v 0.002725 0.055289 0.598870
v 0.012518 0.088556 0.596445
v 0.006921 0.027030 0.627476
v 0.049665 0.054023 0.634474
v 0.040220 0.084966 0.614974
v -0.013673 0.107820 0.794262
v -0.023793 0.114926 0.787361
v -0.070835 0.109001 0.758175
v -0.068819 0.073175 0.761286
v -0.018502 0.134659 0.765774
v -0.050301 0.136726 0.741875
v -0.078268 0.111167 0.746258
v -0.075018 0.093203 0.755898
v -0.010158 0.061013 0.796060
v -0.045834 0.068566 0.779185
v -0.009942 0.091347 0.801259
v 0.010218 0.108308 0.786108
v -0.071100 0.125487 0.674729
v -0.057350 0.138559 0.673959
v -0.064376 0.119513 0.652090
v -0.034179 0.074946 0.599212
v -0.036223 0.089585 0.603239
v -0.090158 0.105568 0.712167
v -0.092689 0.092586 0.698428
v -0.009650 0.111566 0.608869
v -0.037713 0.118346 0.628431
v -0.028892 0.099849 0.602538
v -0.040360 0.055554 0.609667
v -0.067296 0.077561 0.644202
v -0.091064 0.075336 0.686415
v 0.051325 0.040749 0.736676
v 0.057106 0.070031 0.738441
v -0.002105 0.037649 0.784873
v 0.014141 0.030947 0.773703
v -0.047697 0.024990 0.726779
v -0.058057 0.028017 0.714747
v 0.042638 0.031997 0.704737
v 0.011914 0.021627 0.730517
v -0.016810 0.033378 0.775590
v 0.021070 0.018365 0.648434
v 0.033834 0.130779 0.687361
v 0.042782 0.095859 0.620847
v -0.034184 0.156497 0.696988
v -0.032346 0.157221 0.711421
v 0.057883 0.086289 0.711769
v 0.049901 0.072376 0.626114
v -0.016818 0.039618 0.609730
v 0.005725 0.097323 0.595549
v 0.027465 0.094163 0.605416
v 0.001391 0.074079 0.593876
v -0.036921 0.099178 0.785619
v -0.007581 0.136223 0.763149
v -0.081246 0.072062 0.740429
v 0.000849 0.092536 0.802380
v -0.050082 0.108137 0.626711
v -0.089301 0.083427 0.723837
v -0.044402 0.151813 0.708361
v -0.081343 0.057391 0.671519
vt 0.861021 0.735249
vt 0.857658 0.724303
vt 0.878152 0.732086
vt 0.827248 0.310569
vt 0.814260 0.310026
vt 0.816500 0.301580
vt 0.870361 0.711838
vt 0.863498 0.697604
vt 0.807504 0.306615
vt 0.815710 0.331806
vt 0.820933 0.264948
vt 0.797867 0.274393
vt 0.824118 0.231255
vt 0.878386 0.746850
vt 0.890372 0.746298
vt 0.900225 0.756296
vt 0.806381 0.294551
vt 0.823220 0.279932
vt 0.836506 0.318180
vt 0.830351 0.304682
vt 0.853883 0.306276
vt 0.831345 0.323514
vt 0.835879 0.291879
vt 0.844512 0.280635
vt 0.880523 0.691754
vt 0.890117 0.700189
vt 0.892106 0.692921
vt 0.875251 0.725976
vt 0.888829 0.720427
vt 0.888437 0.712012
vt 0.905934 0.720910
vt 0.944944 0.718714
vt 0.952946 0.744811
vt 0.924314 0.710649
vt 0.938986 0.703935
vt 0.895709 0.704516
vt 0.896166 0.710775
vt 0.958301 0.716238
vt 0.965074 0.727943
vt 0.903511 0.788679
vt 0.920111 0.790512
vt 0.908286 0.729554
vt 0.921632 0.762634
vt 0.901812 0.698363
vt 0.919082 0.699948
vt 0.926057 0.691053
vt 0.928750 0.674703
vt 0.932723 0.683694
vt 0.950377 0.703013
vt 0.808457 0.787034
vt 0.819239 0.797195
vt 0.805745 0.804598
vt 0.980504 0.773809
vt 0.950779 0.764892
vt 0.944228 0.759820
vt 0.938878 0.768409
vt 0.955264 0.775713
vt 0.879492 0.262735
vt 0.878159 0.292591
vt 0.854751 0.295581
vt 0.888142 0.262544
vt 0.897741 0.268745
vt 0.895625 0.283210
vt 0.905644 0.284931
vt 0.851188 0.228898
vt 0.865128 0.240997
vt 0.854358 0.251244
vt 0.872886 0.215253
vt 0.874541 0.240416
vt 0.861537 0.221839
vt 0.824022 0.889794
vt 0.830114 0.904138
vt 0.809914 0.900009
vt 0.850451 0.876201
vt 0.861672 0.889407
vt 0.880200 0.906079
vt 0.881740 0.877446
vt 0.894190 0.892204
vt 0.884241 0.870173
vt 0.888562 0.859296
vt 0.894495 0.869134
vt 0.905279 0.861200
vt 0.903268 0.882650
vt 0.891480 0.300020
vt 0.889649 0.308912
vt 0.874733 0.315938
vt 0.840373 0.266521
vt 0.851429 0.173940
vt 0.853894 0.210257
vt 0.836956 0.205930
vt 0.779052 0.863343
vt 0.773049 0.875361
vt 0.767022 0.871711
vt 0.929335 0.779851
vt 0.922786 0.804018
vt 0.958656 0.805987
vt 0.841933 0.217615
vt 0.790914 0.841538
vt 0.777073 0.839175
vt 0.796269 0.829588
vt 0.797082 0.855055
vt 0.980240 0.779226
vt 0.811472 0.884518
vt 0.800846 0.902215
vt 0.807164 0.884519
vt 0.809002 0.868361
vt 0.868159 0.206515
vt 0.881359 0.200864
vt 0.868194 0.188052
vt 0.792246 0.872703
vt 0.799469 0.886345
vt 0.864189 0.326834
vt 0.861620 0.337024
vt 0.853037 0.334307
vt 0.876977 0.323232
vt 0.901842 0.338951
vt 0.877293 0.365828
vt 0.858135 0.352358
vt 0.885985 0.369181
vt 0.843926 0.376571
vt 0.841529 0.339237
vt 0.862887 0.391305
vt 0.879458 0.382683
vt 0.849064 0.319811
vt 0.886918 0.840104
vt 0.907083 0.835177
vt 0.888150 0.805948
vt 0.898024 0.800604
vt 0.861187 0.794985
vt 0.888096 0.787682
vt 0.851097 0.788691
vt 0.865959 0.779635
vt 0.847519 0.402499
vt 0.905697 0.666808
vt 0.879795 0.683732
vt 0.821628 0.352941
vt 0.839099 0.332448
vt 0.857122 0.841162
vt 0.845189 0.812266
vt 0.852865 0.810117
vt 0.823445 0.827741
vt 0.840413 0.805330
vt 0.804551 0.852595
vt 0.797479 0.838204
vt 0.845157 0.846895
vt 0.834655 0.864156
vt 0.830089 0.853876
vt 0.864462 0.812988
vt 0.877086 0.812547
vt 0.862682 0.853909
vt 0.873522 0.867802
vt 0.821515 0.879977
vt 0.816490 0.864877
vt 0.799860 0.802829
vt 0.835742 0.784109
vt 0.977676 0.717824
vt 0.961780 0.693247
vt 0.952623 0.680919
vt 0.852943 0.779748
vt 0.848344 0.767521
vt 0.859782 0.748095
vt 0.869581 0.751914
vt 0.832425 0.770984
vt 0.984176 0.734841
vt 0.778090 0.834049
vt 0.896744 0.221820
vt 0.889689 0.203396
vt 0.909838 0.316544
vt 0.906840 0.297091
vt 0.783597 0.891658
vt 0.857604 0.174679
vt 0.911961 0.809691
vt 0.881793 0.768210
vt 0.812930 0.857281
vt 0.825245 0.803084
vn 0.9439 -0.2510 0.2144
vn 0.9002 -0.1914 0.3912
vn 0.6515 -0.7304 0.2051
vn 0.6482 0.1712 0.7419
vn 0.6084 -0.1783 0.7734
vn 0.9265 0.0282 0.3753
vn 0.3460 -0.4915 0.7992
vn 0.3899 -0.4852 0.7826
vn 0.2548 -0.3022 0.9186
vn 0.9874 -0.1577 0.0153
vn 0.8703 -0.4889 0.0596
vn 0.9527 -0.3026 -0.0279
vn 0.5357 -0.8432 0.0462
vn 0.7451 -0.6668 -0.0172
vn 0.9909 -0.0030 0.1343
vn 0.4956 0.4615 0.7358
vn 0.7925 0.3497 0.4997
vn 0.5363 0.6861 0.4915
vn 0.3782 0.0511 0.9243
vn 0.8968 0.3549 0.2643
vn 0.8906 0.4291 0.1509
vn 0.0602 -0.3855 0.9208
vn 0.0306 -0.6328 0.7737
vn -0.2991 -0.5187 0.8010
vn 0.3888 -0.7392 0.5499
vn 0.2847 -0.9184 0.2749
vn 0.2484 -0.7845 0.5682
vn 0.0766 -0.9868 0.1428
vn -0.1617 -0.9814 0.1039
vn -0.1266 -0.9815 -0.1434
vn -0.1105 -0.9811 0.1588
vn -0.3538 -0.9138 0.1994
vn -0.0548 -0.8414 0.5376
vn 0.0591 -0.9376 0.3427
vn -0.4128 -0.9081 0.0700
vn -0.3297 -0.9292 -0.1670
vn 0.8470 -0.4950 -0.1940
vn 0.2517 -0.9644 0.0808
vn 0.4851 -0.8740 0.0276
vn -0.3353 -0.7316 0.5936
vn -0.2563 -0.9079 0.3319
vn -0.5068 -0.7277 0.4621
vn -0.6714 -0.4381 0.5977
vn -0.6878 -0.6090 0.3950
vn -0.5190 -0.8381 0.1681
vn -0.6602 -0.7314 -0.1707
vn -0.8524 -0.4375 -0.2864
vn -0.7407 -0.4779 -0.4722
vn -0.2869 -0.7770 -0.5604
vn -0.0136 -0.9134 -0.4069
vn 0.0752 -0.9916 -0.1056
vn 0.3240 -0.9074 -0.2676
vn 0.1688 -0.7960 -0.5813
vn 0.7160 0.6976 -0.0242
vn 0.6181 0.7472 0.2443
vn 0.6890 0.6609 0.2974
vn 0.5241 0.8243 -0.2141
vn 0.3811 0.8883 -0.2563
vn 0.5069 0.8612 0.0369
vn 0.2567 0.9563 -0.1398
vn 0.9964 0.0588 -0.0605
vn 0.8776 0.4649 -0.1169
vn 0.9414 0.3371 0.0089
vn 0.7079 0.4657 -0.5310
vn 0.6494 0.7054 -0.2841
vn 0.8993 0.2583 -0.3528
vn 0.1570 0.8279 -0.5384
vn 0.3939 0.8145 -0.4260
vn 0.4309 0.6398 -0.6363
vn -0.1268 0.8615 -0.4918
vn 0.1610 0.9038 -0.3966
vn 0.0459 0.9503 -0.3079
vn -0.2421 0.9538 -0.1779
vn -0.5345 0.8445 0.0331
vn -0.2722 0.9592 0.0769
vn -0.3393 0.8803 0.3317
vn 0.0797 0.9908 0.1094
vn 0.3016 0.8957 0.3268
vn -0.0016 0.8814 0.4723
vn 0.2249 0.7996 0.5569
vn 0.9851 0.1685 0.0349
vn 0.4165 -0.5308 -0.7381
vn 0.8003 -0.1185 -0.5878
vn 0.7992 -0.3914 -0.4561
vn 0.0560 -0.4423 -0.8951
vn 0.4036 -0.2783 -0.8716
vn 0.6157 -0.7289 -0.2994
vn 0.9660 -0.1651 -0.1989
vn -0.3549 -0.5089 -0.7843
vn -0.1139 -0.6967 -0.7082
vn -0.6597 -0.4900 -0.5698
vn -0.2307 -0.2287 -0.9458
vn 0.0937 0.6576 -0.7476
vn 0.5634 0.2862 -0.7750
vn 0.2052 0.3495 -0.9142
vn -0.1998 0.2916 -0.9354
vn 0.7099 0.0522 -0.7024
vn 0.5451 -0.0776 -0.8347
vn 0.1174 -0.1054 -0.9875
vn 0.3543 0.0823 -0.9315
vn 0.0833 0.7270 0.6815
vn -0.3161 0.5566 0.7683
vn -0.0893 0.5054 0.8583
vn -0.1744 0.7953 0.5806
vn -0.4922 0.7481 0.4450
vn -0.6031 0.3224 0.7296
vn -0.5039 0.1387 0.8526
vn -0.4935 0.6825 0.5392
vn -0.5438 -0.2164 0.8108
vn -0.2734 0.0716 0.9592
vn -0.7404 -0.1866 0.6457
vn -0.8274 0.0070 0.5616
vn 0.3454 0.6544 0.6727
vn -0.6597 0.7407 0.1270
vn -0.8070 0.4288 0.4062
vn -0.9614 -0.0214 0.2742
vn -0.7974 0.1261 0.5901
vn -0.9571 -0.2431 0.1574
vn -0.8741 -0.1964 0.4443
vn -0.2150 -0.2679 0.9392
vn 0.0464 -0.1912 0.9805
vn 0.1813 0.5218 0.8336
vn -0.7873 0.5686 -0.2382
vn -0.9116 0.1689 -0.3747
vn -0.9822 0.1546 -0.1066
vn -0.8408 0.0031 -0.5414
vn -0.9632 -0.1283 -0.2363
vn -0.5853 -0.0368 -0.8100
vn -0.6754 -0.2719 -0.6855
vn -0.7083 0.4916 -0.5066
vn -0.3489 0.7399 -0.5752
vn -0.6725 0.4134 -0.6138
vn -0.9245 0.3758 0.0646
vn -0.8105 0.5536 0.1914
vn -0.5375 0.7894 -0.2966
vn -0.2788 0.9008 -0.3330
vn -0.0950 0.7672 -0.6343
vn -0.4056 0.5428 -0.7354
vn -0.5220 -0.7335 -0.4353
vn -0.8697 -0.4918 0.0411
vn 0.8115 -0.4667 0.3516
vn -0.7146 -0.6821 0.1554
vn -0.7547 -0.5837 0.2997
vn -0.8716 -0.3796 0.3101
vn -0.6608 0.2135 -0.7196
vn -0.8881 -0.2226 -0.4022
usemtl Material
s 1
f 47/1/1 8/2/2 17/3/3
f 48/4/4 51/5/5 50/6/6
f 49/7/7 8/2/8 7/8/9
f 8/9/8 51/5/5 7/10/9
f 14/11/10 115/12/11 1/13/12
f 115/14/11 3/15/13 121/16/14
f 50/6/6 47/17/1 116/18/15
f 116/18/15 115/12/11 14/11/10
f 37/19/16 2/20/17 81/21/18
f 37/19/16 38/22/19 48/4/4
f 38/22/19 51/5/5 48/4/4
f 37/19/16 48/4/4 2/20/17
f 2/20/17 50/6/6 15/23/20
f 15/23/20 50/6/6 116/18/15
f 15/23/20 116/18/15 82/24/21
f 49/7/7 39/25/22 117/26/23
f 117/26/23 39/25/22 40/27/24
f 17/3/3 52/28/25 4/29/26
f 118/30/27 52/28/25 49/7/7
f 54/31/28 55/32/29 56/33/30
f 54/31/28 53/34/31 55/32/29
f 53/34/31 119/35/32 55/32/29
f 117/26/23 19/36/33 18/37/34 118/30/27
f 55/32/29 58/38/35 57/39/36
f 1/40/12 121/16/14 23/41/37
f 3/15/13 122/42/38 59/43/39
f 4/29/26 54/31/28 122/42/38
f 123/44/40 60/45/41 19/36/33
f 40/27/24 123/44/40 19/36/33
f 19/36/33 60/45/41 18/37/34
f 123/44/40 40/27/24 62/46/42
f 62/46/42 20/47/43 61/48/44
f 60/45/41 62/46/42 119/35/32
f 119/35/32 62/46/42 120/49/45
f 65/50/46 34/51/47 35/52/48
f 56/33/30 26/53/49 25/54/50
f 56/33/30 57/39/36 26/53/49
f 66/55/51 25/54/50 124/56/52
f 124/56/52 25/54/50 87/57/53
f 125/58/54 80/59/55 16/60/56
f 82/24/21 125/58/54 16/60/56
f 69/61/57 70/62/58 9/63/59
f 70/62/58 71/64/60 9/63/59
f 125/58/54 9/63/59 80/59/55
f 1/13/12 72/65/61 14/11/10
f 72/65/61 67/66/62 73/67/63
f 126/68/64 75/69/65 74/70/66
f 31/71/67 68/72/68 28/73/69
f 31/71/67 5/74/70 76/75/71
f 68/72/68 76/75/71 70/76/58
f 76/75/71 77/77/72 71/78/60
f 127/79/73 141/80/74 128/81/75
f 128/81/75 141/80/74 30/82/76
f 78/83/77 128/81/75 30/82/76
f 9/63/59 79/84/78 80/59/55
f 79/84/78 29/85/79 136/86/80
f 80/59/55 79/84/78 81/21/18
f 129/87/81 73/67/63 82/24/21
f 72/65/61 73/67/63 129/87/81
f 73/67/63 125/58/54 82/24/21
f 14/11/10 129/87/81 116/18/15
f 83/88/82 130/89/83 88/90/84
f 85/91/85 10/92/86 83/93/82
f 24/94/87 88/95/84 23/41/37
f 87/57/53 83/96/82 24/94/87
f 88/90/84 130/89/83 27/97/88
f 27/97/88 130/89/83 74/70/66
f 43/98/89 131/99/90 36/100/91
f 44/101/92 85/91/85 43/98/89
f 26/53/49 131/102/90 87/57/53
f 26/53/49 87/57/53 25/54/50
f 28/73/69 46/103/93 31/71/67
f 28/73/69 133/104/94 132/105/95
f 46/103/93 132/105/95 45/106/96
f 126/68/64 89/107/97 133/108/94
f 89/107/97 130/89/83 84/109/98
f 134/110/99 45/106/96 132/105/95
f 86/111/100 134/110/99 132/105/95
f 134/110/99 44/101/92 45/106/96
f 11/112/101 91/113/102 90/114/103
f 94/115/104 95/116/105 91/113/102
f 91/113/102 12/117/106 135/118/107
f 95/116/105 92/119/108 12/117/106
f 135/118/107 99/120/109 100/121/110
f 12/117/106 93/122/111 99/120/109
f 12/117/106 97/123/112 93/122/111
f 81/21/18 101/124/113 37/19/16
f 136/86/80 94/115/104 11/112/101
f 11/112/101 94/115/104 91/113/102
f 136/86/80 11/112/101 101/124/113
f 42/125/114 95/126/105 30/82/76
f 95/126/105 42/125/114 96/127/115
f 96/127/115 92/128/108 95/126/105
f 96/127/115 140/129/116 97/130/112
f 92/128/117 96/127/115 97/130/112
f 140/129/116 22/131/118 137/132/119
f 97/130/112 140/129/116 137/132/119
f 93/122/111 20/133/43 99/120/109
f 99/134/109 40/27/24 98/135/120
f 98/135/120 40/27/24 39/25/22
f 100/121/110 98/136/120 138/137/121
f 98/135/120 39/25/22 7/8/9
f 38/22/19 138/137/121 7/10/9
f 37/19/16 138/137/122 38/22/19
f 102/138/123 13/139/124 108/140/125
f 13/139/124 113/141/126 114/142/127
f 105/143/128 112/144/129 113/141/126
f 104/145/130 110/146/131 139/147/132
f 140/129/116 108/140/125 22/131/118
f 108/140/125 114/142/127 22/131/118
f 107/148/133 108/140/125 140/129/116
f 108/140/125 13/139/124 114/142/127
f 42/125/114 102/138/123 107/148/133
f 42/125/114 107/148/133 41/149/134
f 141/80/74 103/150/135 42/125/114
f 103/150/135 32/151/136 5/74/70
f 109/152/137 31/71/67 46/103/93
f 109/152/137 46/103/93 45/106/96
f 110/146/131 109/152/137 111/153/138
f 111/153/138 109/152/137 45/106/96
f 105/143/128 45/106/96 44/101/92
f 36/100/91 6/154/139 35/52/48
f 114/142/127 34/51/47 33/155/140
f 47/17/1 50/6/6 8/9/2
f 17/3/3 8/2/2 52/28/141
f 115/14/11 47/1/1 17/3/3
f 50/6/6 51/5/5 8/9/2
f 2/20/17 48/4/4 50/6/6
f 49/7/7 52/28/25 8/2/8
f 1/40/12 115/14/11 121/16/14
f 116/18/15 47/17/1 115/12/11
f 115/14/11 17/3/3 3/15/13
f 81/21/18 2/20/17 16/60/56
f 38/22/19 7/10/9 51/5/5
f 16/60/56 2/20/17 15/23/20
f 40/27/24 19/36/33 117/26/23
f 4/29/26 118/30/27 18/37/34 54/31/28
f 117/26/23 118/30/27 49/7/7
f 118/30/27 4/29/26 52/28/25
f 120/49/45 58/38/35 55/32/29 119/35/32
f 49/7/7 7/8/9 39/25/22
f 53/34/31 60/45/41 119/35/32
f 56/33/30 55/32/29 57/39/36
f 57/39/36 58/38/35 65/156/46
f 64/157/142 65/156/46 58/38/35 120/49/45
f 59/43/39 24/94/87 23/41/37 121/16/14
f 121/16/14 3/15/13 59/43/39
f 63/158/143 64/157/142 62/46/42 61/48/44
f 3/15/13 17/3/3 122/42/38
f 17/3/3 4/29/26 122/42/38
f 18/37/34 53/34/31 54/31/28
f 18/37/34 60/45/41 53/34/31
f 123/44/40 62/46/42 60/45/41
f 62/46/42 40/27/24 20/47/43
f 21/159/144 63/160/143 61/161/44 20/162/43
f 21/159/144 33/155/140 64/163/142 63/160/143
f 120/49/45 62/46/42 64/157/142
f 54/31/28 66/55/51 59/43/39 122/42/38
f 33/155/140 21/159/144 22/131/118
f 65/50/46 64/163/142 33/155/140
f 65/50/46 33/155/140 34/51/47
f 6/164/139 57/39/36 65/156/46
f 6/154/139 65/50/46 35/52/48
f 26/53/49 57/39/36 6/164/139
f 26/165/49 6/154/139 36/100/91
f 66/55/51 56/33/30 25/54/50
f 124/56/52 59/43/39 66/55/51
f 24/94/87 59/43/39 124/56/52
f 32/151/136 77/77/72 76/75/71 5/74/70
f 66/55/51 54/31/28 56/33/30
f 67/66/62 75/69/65 125/58/54
f 73/67/63 67/66/62 125/58/54
f 75/69/65 68/166/68 69/61/57
f 69/61/57 68/166/68 70/62/58
f 125/58/54 75/69/65 69/61/57
f 70/76/58 76/75/71 71/78/60
f 125/58/54 69/61/57 9/63/59
f 1/13/12 27/97/88 72/65/61
f 72/65/61 74/70/66 67/66/62
f 27/97/88 74/70/66 72/65/61
f 74/70/66 75/69/65 67/66/62
f 126/68/64 68/166/68 75/69/65
f 28/167/69 68/166/68 126/68/64
f 68/72/68 31/71/67 76/75/71
f 127/79/73 78/83/77 71/78/60 77/77/72
f 30/168/76 29/85/79 79/84/78 78/169/77
f 77/77/72 32/151/136 127/79/73
f 78/83/77 127/79/73 128/81/75
f 78/169/77 79/84/78 9/63/59 71/64/60
f 10/92/86 134/110/99 86/111/100 84/170/98
f 16/60/56 80/59/55 81/21/18
f 81/21/18 79/84/78 136/86/80
f 15/23/20 82/24/21 16/60/56
f 14/11/10 72/65/61 129/87/81
f 116/18/15 129/87/81 82/24/21
f 83/88/82 10/171/86 130/89/83
f 84/109/98 130/89/83 10/171/86
f 27/172/88 1/40/12 23/41/37 88/95/84
f 126/68/64 74/70/66 130/89/83 89/107/97
f 124/56/52 87/57/53 24/94/87
f 24/94/87 83/96/82 88/95/84
f 20/162/43 93/173/111 137/132/119 21/159/144
f 36/100/91 131/99/90 26/165/49
f 43/98/89 85/91/85 131/99/90
f 44/101/92 134/110/99 85/91/85
f 134/110/99 10/92/86 85/91/85
f 131/102/90 83/96/82 87/57/53
f 131/99/90 85/91/85 83/93/82
f 46/103/93 28/73/69 132/105/95
f 132/105/95 133/104/94 86/111/100
f 133/108/94 89/107/97 84/109/98
f 28/167/69 126/68/64 133/108/94
f 86/111/100 133/104/94 84/170/98
f 91/113/102 135/118/107 100/121/110
f 90/114/103 91/113/102 100/121/110
f 91/113/102 95/116/105 12/117/106
f 12/117/106 99/120/109 135/118/107
f 12/117/106 92/119/117 97/123/112
f 101/124/113 81/21/18 136/86/80
f 94/115/104 30/168/76 95/116/105
f 136/86/80 29/85/79 94/115/104
f 29/85/79 30/168/76 94/115/104
f 141/80/74 42/125/114 30/82/76
f 96/127/115 42/125/114 41/149/134
f 96/127/115 41/149/134 107/148/133
f 96/127/115 107/148/133 140/129/116
f 137/132/119 22/131/118 21/159/144
f 90/114/103 138/137/122 101/124/113 11/112/101
f 97/130/112 137/132/119 93/173/111
f 99/134/109 20/47/43 40/27/24
f 100/121/110 99/120/109 98/136/120
f 138/137/121 98/136/120 7/10/9
f 138/137/122 90/114/103 100/121/110
f 37/19/16 101/124/113 138/137/122
f 105/143/128 113/141/126 139/147/132 106/174/145
f 13/139/124 104/145/130 113/141/126
f 102/138/123 104/145/130 13/139/124
f 104/145/130 139/147/132 113/141/126
f 103/150/135 104/145/130 102/138/123
f 103/150/135 110/146/131 104/145/130
f 103/150/135 141/80/74 127/79/73 32/151/136
f 139/147/132 110/146/131 111/153/138
f 22/131/118 114/142/127 33/155/140
f 107/148/133 102/138/123 108/140/125
f 42/125/114 103/150/135 102/138/123
f 43/98/89 112/144/129 105/143/128 44/101/92
f 103/150/135 5/74/70 110/146/131
f 110/146/131 5/74/70 109/152/137
f 109/152/137 5/74/70 31/71/67
f 106/174/145 111/153/138 45/106/96
f 106/174/145 139/147/132 111/153/138
f 106/174/145 45/106/96 105/143/128
f 36/100/91 142/175/146 113/141/126 112/144/129
f 112/144/129 43/98/89 36/100/91
f 35/52/48 34/51/47 142/175/146 36/100/91
f 114/142/127 113/141/126 142/175/146
f 114/142/127 142/175/146 34/51/47